<?xml version="1.0" encoding="UTF-8"?>
<svg version="1.1" xmlns="http://www.w3.org/2000/svg" width="500" height="500">
<path d="M0 0 C1.501248 -0.00418218 3.00249283 -0.0096645 4.50373191 -0.01631981 C8.59370752 -0.03067745 12.68347996 -0.02656028 16.77346623 -0.019153 C21.19828017 -0.01439942 25.62305152 -0.02695048 30.04785156 -0.03717041 C38.70294399 -0.05432138 47.35796371 -0.05520607 56.01306871 -0.04995751 C63.05210259 -0.04590744 70.09111507 -0.04736928 77.13014793 -0.05270576 C78.63592377 -0.0538284 78.63592377 -0.0538284 80.17211932 -0.05497371 C82.21179568 -0.05650527 84.25147203 -0.05804362 86.29114839 -0.05958868 C105.39699215 -0.07330049 124.5027949 -0.06788545 143.60863771 -0.05640347 C161.06313095 -0.04647385 178.51751815 -0.05940943 195.97199503 -0.08333766 C213.92161184 -0.10775806 231.87117932 -0.11732922 249.8208124 -0.11068493 C259.88719338 -0.10719907 269.95349286 -0.1093828 280.01986122 -0.12693596 C288.58960905 -0.14169481 297.15921796 -0.14224546 305.72896317 -0.12486505 C310.09557224 -0.11638268 314.46193355 -0.11413736 318.82852936 -0.1295166 C322.83640838 -0.14345688 326.84382958 -0.13848228 330.85168274 -0.11927737 C332.29100276 -0.1155454 333.73036028 -0.11835706 335.1696466 -0.12888902 C358.50570641 -0.28732285 377.70557485 8.20505017 394.85050964 24.01268005 C410.69264902 40.61550671 417.2170962 61.02056067 417.1131897 83.66217041 C417.11737187 85.16341841 417.1228542 86.66466324 417.12950951 88.16590232 C417.14386715 92.25587793 417.13974998 96.34565037 417.1323427 100.43563664 C417.12758912 104.86045058 417.14014018 109.28522193 417.15036011 113.71002197 C417.16751108 122.3651144 417.16839577 131.02013412 417.1631472 139.67523912 C417.15909714 146.714273 417.16055898 153.75328548 417.16589546 160.79231834 C417.16664388 161.7961689 417.16739231 162.80001946 417.16816341 163.83428973 C417.16969497 165.87396609 417.17123332 167.91364245 417.17277838 169.9533188 C417.18649018 189.05916256 417.18107515 208.16496531 417.16959316 227.27080812 C417.15966354 244.72530136 417.17259913 262.17968856 417.19652735 279.63416544 C417.22094776 297.58378225 417.23051891 315.53334973 417.22387463 333.48298281 C417.22038877 343.54936379 417.2225725 353.61566327 417.24012566 363.68203163 C417.25488451 372.25177946 417.25543515 380.82138838 417.23805474 389.39113358 C417.22957237 393.75774265 417.22732706 398.12410396 417.2427063 402.49069977 C417.25664658 406.49857879 417.25167197 410.50599999 417.23246706 414.51385316 C417.2287351 415.95317317 417.23154676 417.39253069 417.24207871 418.83181701 C417.40051255 442.16787682 408.90813953 461.36774526 393.10050964 478.51268005 C376.52688214 494.23469824 356.4269402 500.70852043 333.92530823 500.65510559 C332.42680147 500.65884642 330.92829666 500.66344966 329.42979491 500.66883624 C325.32889282 500.68102839 321.22807255 500.68081024 317.1271565 500.67844748 C312.69752585 500.67803835 308.2679211 500.68908772 303.83830261 500.69856262 C295.16563413 500.71515333 286.49299283 500.72067131 277.8203098 500.72178738 C270.76734988 500.72273886 263.7143989 500.72685418 256.6614418 500.73318863 C236.6477352 500.75079656 216.63405002 500.76002832 196.62033562 500.75852768 C195.00298026 500.75840781 195.00298026 500.75840781 193.35295105 500.75828552 C192.27339144 500.75820376 191.19383184 500.758122 190.0815583 500.75803776 C172.59380632 500.75722521 155.10614055 500.77635619 137.61841349 500.80456226 C119.64520277 500.83332165 101.67203404 500.84710084 83.69879973 500.8453747 C73.61505913 500.84471181 63.53140888 500.85015983 53.44768906 500.8717308 C44.8606218 500.88998294 36.27368583 500.89425698 27.68660752 500.88071196 C23.31001889 500.87420234 18.93368184 500.87399206 14.55711746 500.89141846 C10.54112076 500.90724386 6.52557314 500.90419015 2.50958677 500.88685019 C1.06612399 500.88380094 -0.37737311 500.88733329 -1.82079537 500.89857034 C-15.04727865 500.99461912 -27.48039731 498.59509745 -39.27449036 492.38768005 C-40.19488098 491.9184613 -41.11527161 491.44924255 -42.06355286 490.96580505 C-60.91080007 480.73861664 -74.15445407 463.85050942 -80.58699036 443.45018005 C-82.31481882 437.56681478 -83.39866977 432.28110174 -83.40871143 426.132411 C-83.41316928 424.86436695 -83.41762712 423.5963229 -83.42222005 422.28985327 C-83.42213076 420.88497745 -83.42194092 419.48010163 -83.42166138 418.07522583 C-83.42496187 416.58088533 -83.42868783 415.08654573 -83.43280286 413.59220725 C-83.44281035 409.4842196 -83.44653765 405.37624655 -83.44919217 401.26824844 C-83.45309906 396.83785309 -83.46267729 392.40746928 -83.47140503 387.9770813 C-83.49116096 377.27525069 -83.5012356 366.57341914 -83.51013282 355.87157485 C-83.51451808 350.82840251 -83.51988436 345.78523122 -83.52512169 340.74205971 C-83.54213486 323.97034136 -83.55662736 307.19862366 -83.56387043 290.426898 C-83.56578025 286.0752023 -83.56770059 281.7235066 -83.56965637 277.37181091 C-83.57014011 276.29025161 -83.57062385 275.20869231 -83.57112225 274.09435848 C-83.57941626 256.58763245 -83.60474217 239.08097489 -83.63723705 221.57427873 C-83.67034761 203.58876444 -83.6883229 185.60328489 -83.69151467 167.61773998 C-83.69367631 157.52440033 -83.70237405 147.43116045 -83.72797585 137.33785057 C-83.74973768 128.73864455 -83.75770646 120.13956254 -83.74800906 111.5403321 C-83.7434799 107.15756652 -83.74526933 102.7750565 -83.76477051 98.39232635 C-83.78251524 94.36934115 -83.78131403 90.3467958 -83.76587322 86.32380519 C-83.76351412 84.87885581 -83.76773106 83.43387506 -83.77970187 81.98897334 C-83.96101688 58.6314258 -75.4720563 39.42381448 -59.64949036 22.26268005 C-43.0466637 6.42054068 -22.64160974 -0.10390651 0 0 Z " fill="#000000" transform="translate(83.27449035644531,-0.3876800537109375)"/>
<path d="M0 0 C2.79058975 0.01064372 5.58052446 0.00009193 8.37109375 -0.01269531 C24.52134495 -0.02740898 40.40311482 0.87926088 56.06640625 5.07324219 C57.59587891 5.4718042 57.59587891 5.4718042 59.15625 5.87841797 C94.9962894 15.43919476 126.20424894 37.82400508 145.47265625 69.73730469 C164.69140625 102.96343374 164.69140625 102.96343374 164.69140625 116.26074219 C154.38569909 119.04446768 144.05474739 121.70054753 133.69140625 124.26074219 C133.46066406 123.67284912 133.22992188 123.08495605 132.9921875 122.47924805 C122.22161712 95.19362569 109.00797008 67.811439 82.69140625 52.26074219 C81.58539063 51.6071875 80.479375 50.95363281 79.33984375 50.28027344 C55.84444348 36.87503836 31.41155801 33.90925482 4.75390625 33.82324219 C3.83901428 33.81697815 2.92412231 33.81071411 1.98150635 33.80426025 C-30.3693031 33.66432018 -61.02546299 42.60657321 -85.1328125 64.99511719 C-115.88758742 97.01983793 -123.51746691 143.89386417 -123.55859375 186.57324219 C-123.55960083 187.30864227 -123.56060791 188.04404236 -123.56164551 188.80172729 C-123.52359259 230.27101639 -113.83088261 271.86484967 -84.203125 302.45214844 C-74.57578511 311.99431962 -63.44697706 318.41964368 -51.30859375 324.26074219 C-50.41527344 324.69257813 -49.52195312 325.12441406 -48.6015625 325.56933594 C-40.89580183 328.94306761 -32.51143969 330.5478857 -24.30859375 332.26074219 C-23.52734131 332.44241943 -22.74608887 332.62409668 -21.94116211 332.8112793 C-13.2581002 334.65973961 -4.57773594 334.61567146 4.25390625 334.57324219 C5.05642822 334.57108704 5.8589502 334.56893188 6.68579102 334.56671143 C18.24410635 334.51679658 29.46490515 334.27458559 40.69140625 331.26074219 C41.51511719 331.0407959 42.33882812 330.82084961 43.1875 330.59423828 C49.07853795 328.98198836 54.8963346 327.18791839 60.69140625 325.26074219 C61.69042969 324.93203125 62.68945312 324.60332031 63.71875 324.26464844 C84.44975821 316.70471838 101.11796266 300.86247623 110.69140625 281.26074219 C116.49710835 267.01495872 118.86481887 248.65477303 113.0078125 234.02246094 C107.26558425 221.9757091 100.07286811 211.1823109 87.69140625 205.26074219 C87.59666016 206.10378906 87.59666016 206.10378906 87.5 206.96386719 C84.13092775 230.08634201 73.28906027 251.20446431 55.25390625 266.13574219 C36.82798866 279.61092391 13.14234582 283.58445119 -9.18359375 280.63574219 C-27.5999206 277.11967444 -44.76535176 267.64355603 -56.12109375 252.51074219 C-65.11394571 238.9257956 -66.97879704 223.67403275 -64.84765625 207.83496094 C-61.1301956 191.32506216 -51.19576446 178.64925196 -37.30859375 169.26074219 C-19.82847169 158.85074394 -2.1779165 156.07337773 17.87231445 156.07543945 C20.22430996 156.07326949 22.57582246 156.05510978 24.92773438 156.03613281 C34.99878444 156.00008697 44.73452091 156.75625604 54.69140625 158.26074219 C53.08733861 151.13854507 51.52850234 144.52887518 47.69140625 138.26074219 C47.09585938 137.26107422 47.09585938 137.26107422 46.48828125 136.24121094 C40.55621504 127.32606545 30.34915253 121.82106332 19.98828125 119.70996094 C5.85408794 117.78409337 -9.55575804 118.40240626 -21.74609375 126.51074219 C-26.31246459 130.03686774 -30.38395586 134.04011205 -34.30859375 138.26074219 C-40.07418124 135.36269557 -45.37379094 131.93377305 -50.62109375 128.19824219 C-51.21937988 127.77494629 -51.81766602 127.35165039 -52.43408203 126.91552734 C-55.66872933 124.58429095 -58.58411435 122.17358066 -61.30859375 119.26074219 C-50.11403846 104.28255229 -36.48823088 93.40170515 -18.30859375 88.26074219 C-16.73851562 87.81408203 -16.73851562 87.81408203 -15.13671875 87.35839844 C6.25609353 82.2003537 30.05125547 84.01616786 49.69140625 94.26074219 C53.1868492 96.40635991 56.45298054 98.74699915 59.69140625 101.26074219 C60.305 101.70933594 60.91859375 102.15792969 61.55078125 102.62011719 C76.35153967 114.16199302 84.46047747 134.21224075 87.69140625 152.26074219 C87.78682232 153.73163255 87.84999088 155.20501267 87.87890625 156.67871094 C87.97423819 160.80205341 88.22048132 164.34719041 89.69140625 168.26074219 C93.61264583 171.83191774 98.80936371 173.49045922 103.67626953 175.39404297 C122.40057957 183.44726573 135.83017577 202.24031575 143.69140625 220.26074219 C144.2225 221.4015625 144.75359375 222.54238281 145.30078125 223.71777344 C152.21619389 241.33653542 151.15857518 266.66156115 144.69140625 284.26074219 C144.32917969 285.35128906 143.96695312 286.44183594 143.59375 287.56542969 C138.8359963 301.01616388 132.13971779 312.58380406 122.69140625 323.26074219 C122.15257812 323.94265625 121.61375 324.62457031 121.05859375 325.32714844 C102.42517191 348.50188163 70.64336917 360.83399752 42.25317383 365.80249023 C40.53183896 366.11040461 38.81519976 366.44570717 37.10424805 366.80688477 C27.36469333 368.72268072 17.63914957 368.61290527 7.75390625 368.57324219 C6.84199524 368.57175171 5.93008423 368.57026123 4.99053955 368.56872559 C-8.2957416 368.52959762 -21.29238692 368.17918818 -34.30859375 365.26074219 C-35.312854 365.04393799 -35.312854 365.04393799 -36.33740234 364.82275391 C-73.01178471 356.66787401 -106.4663935 335.06989811 -126.99609375 303.38574219 C-128.47074542 301.03195251 -129.8991994 298.65409046 -131.30859375 296.26074219 C-131.64987305 295.68662598 -131.99115234 295.11250977 -132.34277344 294.52099609 C-145.28943471 272.43733703 -151.25977915 248.29686631 -154.88574219 223.18457031 C-155.14108033 221.41902206 -155.40282536 219.65436054 -155.67675781 217.89160156 C-158.11199417 202.14616289 -157.59048756 186.14445964 -157.30859375 170.26074219 C-157.2945752 169.40673828 -157.28055664 168.55273438 -157.26611328 167.67285156 C-156.23056718 121.42557636 -140.79945579 73.14788374 -107.29296875 40.24511719 C-101.39741855 34.62873028 -95.20346237 29.60750719 -88.30859375 25.26074219 C-87.69886719 24.8753125 -87.08914062 24.48988281 -86.4609375 24.09277344 C-69.54682107 13.50108203 -50.99270934 5.92101162 -31.30859375 2.26074219 C-30.47626221 2.0930835 -29.64393066 1.9254248 -28.78637695 1.75268555 C-19.18619755 0.02386852 -9.72963128 -0.04397956 0 0 Z " fill="#FCFCFC" transform="translate(245.30859375,65.7392578125)"/>
<path d="M0 0 C2.63952296 0.01608871 5.27751532 0.00006947 7.91699219 -0.01904297 C17.59475789 -0.02925733 26.31242318 0.58794262 35.64355469 3.39111328 C33.65116017 20.85635888 31.14069014 37.83636598 17.49902344 50.35986328 C6.1000909 59.28241081 -8.38480094 60.68128765 -22.35644531 59.39111328 C-33.083181 57.89579644 -42.24141473 53.63520558 -49.20019531 45.19970703 C-53.33891144 38.72597201 -53.13598905 31.83738004 -52.35644531 24.39111328 C-49.6256882 15.2601442 -43.85149815 10.15187561 -35.73144531 5.70361328 C-24.07499548 0.37674719 -12.58878147 -0.09115531 0 0 Z " fill="#020202" transform="translate(265.3564453125,254.60888671875)"/>
</svg>
